<svg width="24" height="24" viewBox="0 0 24 24" fill="none" xmlns="http://www.w3.org/2000/svg">
<path d="M13.3043 20.2404C10.9413 22.5924 7.11937 22.5924 4.75635 20.2404C2.41455 17.8978 2.41455 14.1029 4.75635 11.7604L13.2542 3.32038C15.0299 1.55987 17.8945 1.55987 19.6702 3.32038C20.5211 4.16018 21 5.3054 21 6.50038C21 7.69535 20.5211 8.84057 19.6702 9.68038L11.873 17.4204C11.3087 17.9914 10.5391 18.3128 9.73597 18.3128C8.93285 18.3128 8.16319 17.9914 7.59899 17.4204C7.0336 16.8575 6.7158 16.0928 6.7158 15.2954C6.7158 14.4979 7.0336 13.7333 7.59899 13.1704L12.5436 8.27038C12.6375 8.17572 12.7655 8.12248 12.8989 8.12248C13.0323 8.12248 13.1603 8.17572 13.2542 8.27038L13.7947 8.80038C13.8895 8.89426 13.9428 9.02206 13.9428 9.15538C13.9428 9.28869 13.8895 9.41649 13.7947 9.51038L8.85015 14.4104C8.43186 14.9121 8.46647 15.6499 8.9299 16.1103C9.39333 16.5707 10.132 16.6011 10.6318 16.1804L18.429 8.45038C18.948 7.93593 19.2399 7.23577 19.2399 6.50538C19.2399 5.77499 18.948 5.07482 18.429 4.56038C17.3437 3.48237 15.5907 3.48237 14.5054 4.56038L5.98749 13.0004C4.33316 14.6589 4.33316 17.3418 5.98749 19.0004C7.6691 20.6482 10.3615 20.6482 12.0431 19.0004L17.6984 13.3904C17.8976 13.192 18.2198 13.192 18.419 13.3904L18.9495 13.9204C19.0463 14.0111 19.1012 14.1378 19.1012 14.2704C19.1012 14.403 19.0463 14.5296 18.9495 14.6204L13.3043 20.2404Z" fill="#4D4F51"/>
</svg>
