<svg width="24" height="24" viewBox="0 0 24 24" fill="none" xmlns="http://www.w3.org/2000/svg">
<path d="M19.4865 2H4.49808C3.09291 2 2 3.13194 2 4.49808V15.7394C2 17.1446 3.09291 18.2375 4.49808 18.2375H8.2452V21.5162C8.2452 21.9066 8.67455 22.1408 8.98681 21.9066L13.8659 18.2375H19.4865C20.8527 18.2375 21.9846 17.1446 21.9846 15.7394V4.49808C21.9846 3.13194 20.8527 2 19.4865 2ZM6.99616 11.3678C6.29357 11.3678 5.74712 10.8213 5.74712 10.1188C5.74712 9.4552 6.29357 8.86972 6.99616 8.86972C7.65971 8.86972 8.2452 9.4552 8.2452 10.1188C8.2452 10.8213 7.65971 11.3678 6.99616 11.3678ZM11.9923 11.3678C11.2897 11.3678 10.7433 10.8213 10.7433 10.1188C10.7433 9.4552 11.2897 8.86972 11.9923 8.86972C12.6559 8.86972 13.2414 9.4552 13.2414 10.1188C13.2414 10.8213 12.6559 11.3678 11.9923 11.3678ZM16.9885 11.3678C16.2859 11.3678 15.7394 10.8213 15.7394 10.1188C15.7394 9.4552 16.2859 8.86972 16.9885 8.86972C17.652 8.86972 18.2375 9.4552 18.2375 10.1188C18.2375 10.8213 17.652 11.3678 16.9885 11.3678Z" fill="white"/>
</svg>
