<svg width="20" height="20" viewBox="0 0 20 20" fill="none" xmlns="http://www.w3.org/2000/svg">
<path fill-rule="evenodd" clip-rule="evenodd" d="M15.6249 7.70834C15.3133 8.01999 15.1574 8.17582 14.9853 8.2514C14.7291 8.36393 14.4374 8.36393 14.1812 8.2514C14.0091 8.17582 13.8532 8.01999 13.5416 7.70834L12.2916 6.45835C11.9799 6.1467 11.8241 5.99087 11.7485 5.81877C11.636 5.56252 11.636 5.27084 11.7485 5.01459C11.8241 4.84249 11.9799 4.68666 12.2916 4.37501V4.37501C12.6032 4.06336 12.7591 3.90754 12.9312 3.83196C13.1874 3.71943 13.4791 3.71943 13.7353 3.83196C13.9074 3.90754 14.0633 4.06336 14.3749 4.37501L15.6249 5.62501C15.9366 5.93666 16.0924 6.09249 16.168 6.26459C16.2805 6.52084 16.2805 6.81252 16.168 7.06877C16.0924 7.24087 15.9366 7.3967 15.6249 7.70834V7.70834ZM5.33325 16.6667C4.39044 16.6667 3.91904 16.6667 3.62615 16.3738C3.33325 16.0809 3.33325 15.6095 3.33325 14.6667V14.1618C3.33325 13.753 3.33325 13.5486 3.40937 13.3649C3.48549 13.1811 3.63001 13.0366 3.91904 12.7476L9.00237 7.66422C9.66904 6.99756 10.0024 6.66422 10.4166 6.66422C10.8308 6.66422 11.1641 6.99756 11.8308 7.66422L12.3357 8.16913C13.0024 8.8358 13.3357 9.16913 13.3357 9.58334C13.3357 9.99756 13.0024 10.3309 12.3357 10.9976L7.25237 16.0809C6.96334 16.3699 6.81883 16.5144 6.63505 16.5906C6.45128 16.6667 6.24691 16.6667 5.83816 16.6667H5.33325Z" fill="#4D4CAC"/>
</svg>
