<svg fill="none" height="38" viewBox="0 0 38 38" width="38" xmlns="http://www.w3.org/2000/svg"><g fill="#fff"><path d="m10.2079 6.6645c0 .70019-.2076 1.38466-.59655 1.96684-.38896.58219-.9418 1.03595-1.58862 1.3039-.64681.26796-1.35855.33806-2.04521.20146-.68665-.1366-1.31739-.47377-1.81244-.96888s-.83218-1.12592-.96877-1.81266c-.13658-.68674-.06648-1.39856.20144-2.04545s.72162-1.1998 1.30374-1.58881c.58212-.389 1.26651-.59663 1.96661-.59663.93882 0 1.83918.37299 2.50303 1.03691.66384.66392 1.03677 1.56439 1.03677 2.50332z"/><path d="m15.1415 0h-.2522c-.8214 0-1.6093.326364-2.1901.907296-.5809.580934-.9072 1.368844-.9072 2.190404v3.98276c-.0139 1.25492-.5204 2.45411-1.4102 3.33904-.88974.8849-2.09161 1.3847-3.34643 1.3916h-3.93804c-.82146 0-1.60928.3264-2.190143.9073-.580862.5809-.907187 1.3688-.907187 2.1904v.2478c0 .8216.326325 1.6095.907187 2.1904.580863.5809 1.368683.9073 2.190143.9073h15.12387v-15.1566c0-.82156-.3264-1.60947-.9072-2.190404-.5809-.580932-1.3687-.907296-2.1902-.907296z"/><path d="m27.7742 6.6645c0 .70019.2076 1.38466.5965 1.96684.389.58219.9418 1.03595 1.5887 1.3039.6468.26796 1.3585.33806 2.0452.20146.6866-.1366 1.3174-.47377 1.8124-.96888.4951-.49511.8322-1.12592.9688-1.81266s.0665-1.39856-.2015-2.04545c-.2679-.64689-.7216-1.1998-1.3037-1.58881-.5821-.389-1.2665-.59663-1.9666-.59663-.9388 0-1.8392.37299-2.503 1.03691-.6639.66392-1.0368 1.56439-1.0368 2.50332z"/><path d="m22.8407 0h.2478c.8215 0 1.6093.326364 2.1902.907296.5808.580934.9072 1.368844.9072 2.190404v3.98276c.0139 1.25492.5203 2.45411 1.4101 3.33904.8898.8849 2.0916 1.3847 3.3465 1.3916h3.9601c.8215 0 1.6093.3264 2.1902.9073.5808.5809.9072 1.3688.9072 2.1904v.2478c0 .8216-.3264 1.6095-.9072 2.1904-.5809.5809-1.3687.9073-2.1902.9073h-15.1415v-15.1566c0-.82156.3263-1.60947.9072-2.190404.5809-.580932 1.3687-.907296 2.1901-.907296z"/><path d="m10.2079 31.3178c0-.7002-.2076-1.3846-.59655-1.9668-.38896-.5822-.9418-1.036-1.58862-1.3039-.64681-.268-1.35855-.3381-2.04521-.2015-.68665.1366-1.31739.4738-1.81244.9689s-.83218 1.1259-.96877 1.8126c-.13658.6868-.06648 1.3986.20144 2.0455s.72162 1.1998 1.30374 1.5888 1.26651.5966 1.96661.5966c.93882 0 1.83918-.373 2.50303-1.0369.66384-.6639 1.03677-1.5644 1.03677-2.5033z"/><path d="m15.1415 37.9823h-.2522c-.8214 0-1.6093-.3263-2.1901-.9073-.5809-.5809-.9072-1.3688-.9072-2.1904v-3.9827c-.0139-1.2549-.5204-2.4541-1.4102-3.3391-.88974-.8849-2.09161-1.3847-3.34643-1.3916h-3.93804c-.82146 0-1.60928-.3263-2.190143-.9073-.580862-.5809-.907187-1.3688-.907187-2.1904v-.2478c0-.8215.326325-1.6094.907187-2.1904.580863-.5809 1.368683-.9073 2.190143-.9073h15.12387v15.1743c0 .8216-.3264 1.6095-.9072 2.1904-.5809.581-1.3687.9073-2.1902.9073z"/><path d="m27.7742 31.3178c0-.7002.2076-1.3846.5965-1.9668.389-.5822.9418-1.036 1.5887-1.3039.6468-.268 1.3585-.3381 2.0452-.2015.6866.1366 1.3174.4738 1.8124.9689.4951.4951.8322 1.1259.9688 1.8126.1366.6868.0665 1.3986-.2015 2.0455-.2679.6469-.7216 1.1998-1.3037 1.5888s-1.2665.5966-1.9666.5966c-.9388 0-1.8392-.373-2.503-1.0369-.6639-.6639-1.0368-1.5644-1.0368-2.5033z"/><path d="m22.8407 37.9823h.2478c.8215 0 1.6093-.3263 2.1902-.9073.5808-.5809.9072-1.3688.9072-2.1904v-3.9827c.0139-1.2549.5203-2.4541 1.4101-3.3391.8898-.8849 2.0916-1.3847 3.3465-1.3916h3.9601c.8215 0 1.6093-.3263 2.1902-.9073.5808-.5809.9072-1.3688.9072-2.1904v-.2478c0-.8215-.3264-1.6094-.9072-2.1904-.5809-.5809-1.3687-.9073-2.1902-.9073h-15.1415v15.1743c0 .8216.3263 1.6095.9072 2.1904.5809.581 1.3687.9073 2.1901.9073z"/></g></svg>