<svg width="18" height="18" viewBox="0 0 18 18" fill="none" xmlns="http://www.w3.org/2000/svg">
<path d="M17.211 15.941L13.2703 12.0003C13.1726 11.9351 13.0749 11.87 12.9772 11.87H12.5538C13.5634 10.6976 14.2148 9.1343 14.2148 7.44077C14.2148 3.72802 11.1534 0.666626 7.44065 0.666626C3.69533 0.666626 0.666504 3.72802 0.666504 7.44077C0.666504 11.1861 3.69533 14.2149 7.44065 14.2149C9.13418 14.2149 10.6649 13.5961 11.8699 12.5865V13.0099C11.8699 13.1076 11.9025 13.2053 11.9676 13.303L15.9083 17.2437C16.0712 17.4066 16.3317 17.4066 16.462 17.2437L17.211 16.4947C17.3739 16.3644 17.3739 16.1039 17.211 15.941ZM7.44065 12.6516C4.54209 12.6516 2.22977 10.3393 2.22977 7.44077C2.22977 4.57478 4.54209 2.22989 7.44065 2.22989C10.3066 2.22989 12.6515 4.57478 12.6515 7.44077C12.6515 10.3393 10.3066 12.6516 7.44065 12.6516Z" fill="#757779"/>
</svg>
