<svg fill="none" height="15" viewBox="0 0 16 15" width="16" xmlns="http://www.w3.org/2000/svg"><path d="m.651074 6.39069c-.126714-.09226-.180889-.2548-.13487-.40464l.059942-.18733c.043825-.14805.17558-.25286.329681-.26227l4.787863-.38216 1.83573-4.413535c.06158-.154615.21613-.251598.38213-.239785h.19481c.1565-.00332.29789.092953.35216.239785l1.84318 4.413535 4.7879.38216c.1541.00941.2859.11422.3297.26227l.0599.18733c.051.14511.0061.30661-.1124.40464l-3.6115 3.10221 1.109 4.6533c.0365.149-.0196.3054-.1424.3972l-.2173.1199c-.1267.0856-.2928.0856-.4196 0l-4.07605-2.4728-4.09853 2.4952c-.12675.0857-.29285.0857-.41959 0l-.16484-.1124c-.12285-.0918-.1789-.2481-.14237-.3971l1.07896-4.6833z" fill="#f0bb44"/></svg>