<svg fill="none" height="20" viewBox="0 0 20 20" width="20" xmlns="http://www.w3.org/2000/svg"><path clip-rule="evenodd" d="m5.63488 10.3174c0 1.0958-.88832 1.9842-1.98413 1.9842-1.0958 0-1.98412-.8884-1.98412-1.9842 0-1.09576.88832-1.98409 1.98412-1.98409 1.09581 0 1.98413.88833 1.98413 1.98409zm6.34922 0c0 1.0958-.8883 1.9842-1.98414 1.9842-1.0958 0-1.98413-.8884-1.98413-1.9842 0-1.09576.88833-1.98409 1.98413-1.98409 1.09584 0 1.98414.88833 1.98414 1.98409zm4.3651 1.9842c1.0958 0 1.9841-.8884 1.9841-1.9842 0-1.09576-.8883-1.98409-1.9841-1.98409s-1.9842.88833-1.9842 1.98409c0 1.0958.8884 1.9842 1.9842 1.9842z" fill="#737980" fill-rule="evenodd"/></svg>