<svg width="22" height="22" viewBox="0 0 22 22" fill="none" xmlns="http://www.w3.org/2000/svg">
<path d="M14.9519 13.7469L19.25 18.045L18.045 19.25L13.7469 14.9519C12.5926 15.8492 11.1421 16.3836 9.56679 16.3836C5.80198 16.3836 2.75 13.3316 2.75 9.56679C2.75 5.80198 5.80198 2.75 9.56679 2.75C13.3316 2.75 16.3836 5.80198 16.3836 9.56679C16.3836 11.1421 15.8492 12.5926 14.9519 13.7469ZM9.56679 14.6794C12.3904 14.6794 14.6794 12.3904 14.6794 9.56679C14.6794 6.74318 12.3904 4.4542 9.56679 4.4542C6.74318 4.4542 4.4542 6.74318 4.4542 9.56679C4.4542 12.3904 6.74318 14.6794 9.56679 14.6794Z" fill="#4D4CAC"/>
</svg>
