<svg width="32" height="32" viewBox="0 0 32 32" fill="none" xmlns="http://www.w3.org/2000/svg">
<path d="M24.8381 6.99074C25.06 7.15233 25.1508 7.3676 25.1104 7.63654L22.5278 23.1339C22.4943 23.329 22.3868 23.4805 22.2052 23.5882C22.1111 23.642 22.0067 23.669 21.8922 23.669C21.8184 23.669 21.7376 23.6522 21.6498 23.6187L17.0795 21.7519L14.6382 24.7283C14.5173 24.8832 14.3525 24.9606 14.1438 24.9606C14.0564 24.9606 13.9824 24.9472 13.9218 24.9204C13.7941 24.8734 13.6914 24.7943 13.6138 24.6831C13.5362 24.572 13.4976 24.4492 13.498 24.3148V20.7937L22.2154 10.109L11.4301 19.4416L7.44459 17.8071C7.19561 17.7129 7.06114 17.528 7.04118 17.2523C7.02762 16.9833 7.13516 16.7848 7.36379 16.6568L24.1522 6.97097C24.2532 6.91033 24.3607 6.88 24.4748 6.88C24.6093 6.88 24.7304 6.91692 24.8381 6.99074V6.99074Z" fill="#4D4CAC"/>
</svg>
